# xmcd
# 
# Track frame offsets:
#     150
#     13196
#     27817
#     39435
#     60663
#     73768
#     95471
#     106869
#     125641
#     143255
#     158590
#     176074
# 
# Disc length: 2741
# 
# Revision: 1
# Processed by: cddbd v1.5.2PL0 Copyright (c) Steve Scherf et al.
# Submitted via: fre:ac v1.1beta1pre3
# 
DISCID=960ab30c
DTITLE=Mark Chesnutt - Outlaw
DYEAR=2010
DGENRE=Country
TTITLE0=Black Rose
TTITLE1=Whiskey Bent And Hell Bound
TTITLE2=Only Daddy That'll Walk The Line
TTITLE3=A Couple More Years
TTITLE4=Need a Little Time Off For Bad Behavior
TTITLE5=Sunday Mornin' Comin' Down
TTITLE6=Are You Ready For The Country
TTITLE7=Lovin' Her Was Easier ( Than Anything I'll Ever Do Again )
TTITLE8=Country State Of Mind
TTITLE9=Freedom To Stay
TTITLE10=Bloody Mary Morning
TTITLE11=Desperados Waiting For A Train
EXTD=YEAR: 2010
EXTT0=
EXTT1=
EXTT2=
EXTT3=
EXTT4=
EXTT5=
EXTT6=
EXTT7=
EXTT8=
EXTT9=
EXTT10=
EXTT11=
PLAYORDER=
